<svg width="211" height="471" viewBox="0 0 211 471" fill="none" xmlns="http://www.w3.org/2000/svg">
<path fill-rule="evenodd" clip-rule="evenodd" d="M8.13262 470.56C6.93262 470.16 5.03262 468.56 4.03262 467.16C2.13262 464.66 2.03262 462.76 1.93262 431.86C1.93262 400.56 1.93262 399.16 3.93262 396.56C7.13262 392.26 10.9326 390.56 23.8326 387.86C42.0326 384.06 57.0326 378.56 68.7326 371.56C101.633 351.86 121.333 320.96 129.833 275.56L132.533 261.36H168.933H205.333L207.833 263.76C210.633 266.56 210.833 268.66 209.233 283.06C202.533 344.56 172.933 395.16 121.733 432.96C104.133 445.86 82.7326 456.26 60.3326 462.76C42.3326 467.96 13.1326 472.36 8.13262 470.56Z" fill="white"/>
<path fill-rule="evenodd" clip-rule="evenodd" d="M2.33203 300.86V262.36H40.832H79.332L79.232 269.56C79.232 304.66 47.632 336.76 11.332 338.86L2.33203 339.36V300.86Z" fill="white"/>
<path fill-rule="evenodd" clip-rule="evenodd" d="M3.03219 207.96C0.532191 206.86 -0.167808 206.06 0.0321915 204.16C0.932192 196.86 7.83219 162.16 10.3322 152.56C16.5322 129.26 31.4322 99.6603 48.1322 77.8603C54.3322 69.6603 71.2322 52.3603 79.8322 45.3603C108.332 21.9603 146.532 6.26033 188.432 0.760334C200.632 -0.839666 205.232 -0.0396664 208.432 4.36033C210.132 6.66033 210.232 9.36033 210.332 39.1603C210.332 74.8603 210.432 74.4603 204.032 78.3603C202.232 79.3603 198.332 80.7603 195.332 81.3603C159.832 88.0603 138.732 98.5603 118.732 119.46C101.832 137.16 90.8322 158.16 83.7322 186.36C77.9322 209.26 80.0322 208.16 38.8322 208.86C12.7322 209.26 5.63219 209.06 3.03219 207.96Z" fill="white"/>
<path fill-rule="evenodd" clip-rule="evenodd" d="M133.833 208.66C132.633 207.16 133.333 191.36 134.833 185.86C142.133 157.96 171.933 133.96 202.533 131.66L210.333 131.06V166.26V201.56L206.333 205.46L202.333 209.36H168.333C149.633 209.36 134.033 209.06 133.833 208.66Z" fill="white"/>
</svg>
