<svg width="879" height="471" viewBox="0 0 879 471" fill="none" xmlns="http://www.w3.org/2000/svg">
<path fill-rule="evenodd" clip-rule="evenodd" d="M8.13262 470.56C6.93262 470.16 5.03262 468.56 4.03262 467.16C2.13262 464.66 2.03262 462.76 1.93262 431.86C1.93262 400.56 1.93262 399.16 3.93262 396.56C7.13262 392.26 10.9326 390.56 23.8326 387.86C42.0326 384.06 57.0326 378.56 68.7326 371.56C101.633 351.86 121.333 320.96 129.833 275.56L132.533 261.36H168.933H205.333L207.833 263.76C210.633 266.56 210.833 268.66 209.233 283.06C202.533 344.56 172.933 395.16 121.733 432.96C104.133 445.86 82.7326 456.26 60.3326 462.76C42.3326 467.96 13.1326 472.36 8.13262 470.56Z" fill="black"/>
<path fill-rule="evenodd" clip-rule="evenodd" d="M2.33203 300.86V262.36H40.832H79.332L79.232 269.56C79.232 304.66 47.632 336.76 11.332 338.86L2.33203 339.36V300.86Z" fill="black"/>
<path fill-rule="evenodd" clip-rule="evenodd" d="M424.132 301.76C408.632 297.26 398.232 286.06 392.832 268.36C387.332 250.16 386.932 213.96 391.932 193.36C397.832 169.26 414.332 156.26 438.732 156.36C453.132 156.36 462.832 160.06 471.832 168.86C478.632 175.46 482.632 183.76 485.532 196.96C488.432 210.56 488.732 249.26 486.032 262.36C481.532 283.46 470.032 296.86 452.132 301.96C445.632 303.76 430.632 303.66 424.132 301.76ZM430.332 279.26C423.532 274.46 421.532 265.16 420.632 233.36C419.732 202.26 422.032 187.26 428.332 181.96C434.332 176.86 445.232 177.76 449.732 183.66C453.432 188.56 455.232 197.06 456.432 216.36C458.132 243.76 456.132 268.36 451.732 275.06C447.532 281.36 436.432 283.56 430.332 279.26Z" fill="black"/>
<path fill-rule="evenodd" clip-rule="evenodd" d="M839.733 302.36C821.033 297.06 811.033 281.56 807.233 251.86C805.633 239.86 806.533 207.36 808.733 197.36C812.533 179.96 821.633 167.16 835.033 160.56C841.733 157.26 843.433 156.86 851.633 156.56C858.633 156.36 862.833 156.86 869.333 158.56L877.833 160.86L878.033 172.46L878.333 184.16L872.233 182.26C847.433 174.46 837.333 190.26 838.533 235.36C838.933 249.76 839.533 255.26 841.033 260.56C844.433 272.06 850.033 278.36 858.233 279.96C861.333 280.56 870.233 278.56 876.533 275.86C878.133 275.16 878.333 276.06 878.333 286.46V297.96L871.333 300.16C863.233 302.66 845.333 303.86 839.733 302.36Z" fill="black"/>
<path fill-rule="evenodd" clip-rule="evenodd" d="M312.332 240.36V179.36H304.232H296.232L296.532 169.06L296.832 158.86L304.532 158.56L312.332 158.26V138.56C312.332 112.26 313.932 105.16 322.032 96.1604C328.832 88.6604 338.932 85.5604 353.132 86.7604C366.832 87.8604 366.332 87.2604 366.332 100.76V112.36L363.532 111.56C358.132 110.06 350.632 110.66 347.632 112.86C342.732 116.46 341.332 122.56 341.332 141.56V158.36H353.332H365.332V168.86V179.36H353.332H341.332V240.36V301.36H326.832H312.332V240.36Z" fill="black"/>
<path fill-rule="evenodd" clip-rule="evenodd" d="M524.332 229.76V158.26L539.032 158.56L553.832 158.86L554.332 169.36C554.632 176.56 555.032 179.06 555.632 177.46C556.032 176.26 559.132 172.36 562.332 168.86C569.332 161.46 577.232 157.36 585.432 157.06L590.832 156.86L591.032 167.96L591.332 179.06L585.532 179.76C567.632 181.76 560.432 185.66 556.632 195.36C555.032 199.26 554.732 205.56 554.032 250.06L553.332 300.36L538.832 300.86L524.332 301.36V229.76Z" fill="black"/>
<path fill-rule="evenodd" clip-rule="evenodd" d="M616.332 300.66C616.332 300.16 627.832 274.06 662.532 196.36L669.932 179.86L644.132 179.56L618.332 179.26V168.76V158.36H664.332C689.632 158.36 710.232 158.66 710.232 159.06C710.232 159.46 697.932 186.86 682.932 219.86L655.632 279.86L680.432 280.06L705.332 280.36V290.86V301.36H660.832C636.332 301.36 616.332 301.06 616.332 300.66Z" fill="black"/>
<path fill-rule="evenodd" clip-rule="evenodd" d="M742.332 229.86V158.36H756.832H771.332V229.86V301.36H756.832H742.332V229.86Z" fill="black"/>
<path fill-rule="evenodd" clip-rule="evenodd" d="M3.03219 207.96C0.532191 206.86 -0.167808 206.06 0.0321915 204.16C0.932192 196.86 7.83219 162.16 10.3322 152.56C16.5322 129.26 31.4322 99.6603 48.1322 77.8603C54.3322 69.6603 71.2322 52.3603 79.8322 45.3603C108.332 21.9603 146.532 6.26033 188.432 0.760334C200.632 -0.839666 205.232 -0.0396664 208.432 4.36033C210.132 6.66033 210.232 9.36033 210.332 39.1603C210.332 74.8603 210.432 74.4603 204.032 78.3603C202.232 79.3603 198.332 80.7603 195.332 81.3603C159.832 88.0603 138.732 98.5603 118.732 119.46C101.832 137.16 90.8322 158.16 83.7322 186.36C77.9322 209.26 80.0322 208.16 38.8322 208.86C12.7322 209.26 5.63219 209.06 3.03219 207.96Z" fill="black"/>
<path fill-rule="evenodd" clip-rule="evenodd" d="M133.833 208.66C132.633 207.16 133.333 191.36 134.833 185.86C142.133 157.96 171.933 133.96 202.533 131.66L210.333 131.06V166.26V201.56L206.333 205.46L202.333 209.36H168.333C149.633 209.36 134.033 209.06 133.833 208.66Z" fill="black"/>
<path fill-rule="evenodd" clip-rule="evenodd" d="M748.132 128.06C738.132 120.86 738.132 110.46 748.232 103.56C757.832 97.0603 772.832 104.46 772.832 115.86C772.832 123.96 765.732 130.36 756.832 130.36C752.632 130.36 750.432 129.76 748.132 128.06Z" fill="black"/>
</svg>
